<svg xmlns="http://www.w3.org/2000/svg" xmlns:xlink="http://www.w3.org/1999/xlink" width="1587" zoomAndPan="magnify" viewBox="0 0 1190.25 1683.749945" height="2245" preserveAspectRatio="xMidYMid meet" version="1.0"><defs><clipPath id="2aef2f471e"><path d="M 0 234 L 1189.5 234 L 1189.5 1683.09375 L 0 1683.09375 Z M 0 234 " clip-rule="nonzero"/></clipPath><clipPath id="44ea56b5c3"><path d="M 44 0.40625 L 1189.5 0.40625 L 1189.5 1650 L 44 1650 Z M 44 0.40625 " clip-rule="nonzero"/></clipPath></defs><g clip-path="url(#2aef2f471e)"><path fill="#ffffff" d="M 1452.621094 480.1875 C 1439.757812 483.089844 1437.402344 489.035156 1434.496094 501.898438 C 1431.589844 489.035156 1429.234375 483.09375 1416.371094 480.1875 C 1429.234375 477.28125 1431.589844 471.339844 1434.496094 458.480469 C 1437.402344 471.339844 1439.757812 477.28125 1452.621094 480.1875 Z M 1286.6875 271.421875 C 1289.191406 260.339844 1291.21875 255.222656 1302.300781 252.722656 C 1291.21875 250.214844 1289.191406 245.101562 1286.6875 234.019531 C 1284.179688 245.101562 1282.152344 250.214844 1271.070312 252.722656 C 1282.152344 255.222656 1284.179688 260.351562 1286.6875 271.421875 Z M 1269.289062 597.207031 C 1261.894531 629.9375 1255.898438 645.054688 1223.164062 652.449219 C 1255.898438 659.84375 1261.894531 674.960938 1269.289062 707.6875 C 1276.683594 674.960938 1282.679688 659.84375 1315.410156 652.449219 C 1282.679688 645.054688 1276.683594 629.9375 1269.289062 597.207031 Z M 1221.84375 872.722656 C 1214.65625 904.523438 1208.828125 919.21875 1177.019531 926.402344 C 1208.828125 933.589844 1214.65625 948.28125 1221.84375 980.089844 C 1229.03125 948.28125 1234.855469 933.589844 1266.667969 926.402344 C 1234.855469 919.21875 1229.03125 904.523438 1221.84375 872.722656 Z M 1181.988281 1224.570312 C 1179.207031 1236.875 1176.953125 1242.5625 1164.644531 1245.34375 C 1176.953125 1248.121094 1179.207031 1253.808594 1181.988281 1266.113281 C 1184.769531 1253.808594 1187.023438 1248.121094 1199.332031 1245.34375 C 1187.023438 1242.5625 1184.769531 1236.875 1181.988281 1224.570312 Z M 1108.222656 1367.109375 C 1106.550781 1374.5 1105.199219 1377.914062 1097.804688 1379.597656 C 1105.199219 1381.269531 1106.550781 1384.683594 1108.222656 1392.074219 C 1109.894531 1384.683594 1111.246094 1381.269531 1118.640625 1379.597656 C 1111.242188 1377.914062 1109.890625 1374.5 1108.222656 1367.109375 Z M 1022.414062 1443.859375 C 1019.773438 1455.539062 1017.632812 1460.933594 1005.953125 1463.574219 C 1017.632812 1466.214844 1019.773438 1471.605469 1022.414062 1483.289062 C 1025.050781 1471.605469 1027.191406 1466.214844 1038.871094 1463.574219 C 1027.191406 1460.933594 1025.050781 1455.539062 1022.414062 1443.859375 Z M 818.375 956.335938 C 814.980469 971.363281 812.230469 978.300781 797.199219 981.699219 C 812.230469 985.09375 814.980469 992.035156 818.375 1007.058594 C 821.773438 992.035156 824.527344 985.09375 839.554688 981.699219 C 824.527344 978.300781 821.773438 971.363281 818.375 956.335938 Z M 588.023438 323.984375 C 582.683594 347.605469 578.355469 358.519531 554.730469 363.855469 C 578.355469 369.191406 582.683594 380.101562 588.023438 403.722656 C 593.359375 380.101562 597.6875 369.191406 621.308594 363.855469 C 597.6875 358.519531 593.359375 347.605469 588.023438 323.984375 Z M 588.023438 835.695312 C 584.792969 850 582.171875 856.609375 567.863281 859.835938 C 582.171875 863.070312 584.792969 869.675781 588.023438 883.980469 C 591.253906 869.675781 593.875 863.070312 608.179688 859.835938 C 593.886719 856.605469 591.265625 850 588.035156 835.695312 Z M 462.878906 732.171875 C 460.34375 743.410156 458.28125 748.601562 447.039062 751.140625 C 458.28125 753.679688 460.34375 758.871094 462.878906 770.109375 C 465.417969 758.871094 467.480469 753.679688 478.722656 751.140625 C 467.480469 748.601562 465.417969 743.410156 462.878906 732.171875 Z M 415.359375 977.527344 C 408.785156 1006.628906 403.449219 1020.074219 374.34375 1026.648438 C 403.453125 1033.222656 408.785156 1046.667969 415.359375 1075.769531 C 421.9375 1046.667969 427.269531 1033.222656 456.375 1026.648438 C 427.265625 1020.074219 421.9375 1006.628906 415.359375 977.527344 Z M 271.570312 827.511719 C 268.984375 838.953125 266.886719 844.242188 255.4375 846.828125 C 266.886719 849.414062 268.984375 854.699219 271.570312 866.144531 C 274.15625 854.699219 276.253906 849.414062 287.699219 846.828125 C 276.273438 844.242188 274.164062 838.953125 271.578125 827.511719 Z M 334.96875 1612.183594 C 330.171875 1633.40625 326.285156 1643.210938 305.046875 1648.007812 C 326.277344 1652.800781 330.164062 1662.605469 334.96875 1683.828125 C 339.765625 1662.605469 343.652344 1652.800781 364.886719 1648.007812 C 343.664062 1643.210938 339.773438 1633.40625 334.976562 1612.183594 Z M 19.292969 595.859375 C 16.246094 609.328125 13.773438 615.546875 0.3125 618.589844 C 13.78125 621.636719 16.246094 627.851562 19.292969 641.320312 C 22.332031 627.851562 24.8125 621.636719 38.269531 618.589844 C 24.800781 615.558594 22.332031 609.328125 19.292969 595.859375 Z M 19.292969 595.859375 " fill-opacity="1" fill-rule="nonzero"/></g><g clip-path="url(#44ea56b5c3)"><path fill="#ffffff" d="M 1512.847656 873.570312 C 1495.632812 877.460938 1492.480469 885.414062 1488.589844 902.617188 C 1484.699219 885.402344 1481.546875 877.449219 1464.332031 873.570312 C 1481.546875 869.683594 1484.699219 861.734375 1488.589844 844.527344 C 1492.480469 861.734375 1495.632812 869.695312 1512.847656 873.570312 Z M 1440.066406 1441.253906 C 1436.269531 1458.054688 1433.191406 1465.816406 1416.390625 1469.613281 C 1433.191406 1473.40625 1436.269531 1481.167969 1440.066406 1497.96875 C 1443.863281 1481.167969 1446.941406 1473.40625 1463.746094 1469.613281 C 1446.929688 1465.816406 1443.863281 1458.054688 1440.066406 1441.253906 Z M 1388.089844 1326.527344 C 1386.839844 1332.0625 1385.824219 1334.617188 1380.289062 1335.867188 C 1385.824219 1337.117188 1386.839844 1339.675781 1388.089844 1345.207031 C 1389.335938 1339.6875 1390.351562 1337.117188 1395.886719 1335.867188 C 1390.351562 1334.613281 1389.335938 1332.058594 1388.089844 1326.527344 Z M 1335.53125 1210.890625 C 1333.085938 1221.710938 1331.105469 1226.707031 1320.28125 1229.152344 C 1331.105469 1231.597656 1333.085938 1236.597656 1335.53125 1247.417969 C 1337.976562 1236.597656 1339.957031 1231.597656 1350.78125 1229.152344 C 1339.957031 1226.703125 1337.976562 1221.710938 1335.53125 1210.886719 Z M 1303.605469 1184.6875 C 1299.910156 1201.035156 1296.925781 1208.585938 1280.566406 1212.28125 C 1296.917969 1215.976562 1299.910156 1223.523438 1303.605469 1239.875 C 1307.296875 1223.527344 1310.289062 1215.980469 1326.640625 1212.28125 C 1310.292969 1208.582031 1307.296875 1201.03125 1303.605469 1184.6875 Z M 1237.574219 1040.3125 C 1236.222656 1046.296875 1235.128906 1049.058594 1229.148438 1050.410156 C 1235.132812 1051.761719 1236.226562 1054.527344 1237.574219 1060.507812 C 1238.925781 1054.527344 1240.023438 1051.761719 1245.996094 1050.410156 C 1240.023438 1049.054688 1238.941406 1046.28125 1237.574219 1040.308594 Z M 1182.878906 974.289062 C 1180.167969 986.285156 1177.96875 991.824219 1165.972656 994.53125 C 1177.96875 997.242188 1180.167969 1002.785156 1182.878906 1014.777344 C 1185.589844 1002.785156 1187.785156 997.242188 1199.777344 994.53125 C 1187.796875 991.824219 1185.597656 986.285156 1182.878906 974.289062 Z M 1128.230469 970.1875 C 1125.160156 983.789062 1122.664062 990.070312 1109.058594 993.132812 C 1122.660156 996.203125 1125.152344 1002.488281 1128.230469 1016.078125 C 1131.304688 1002.476562 1133.796875 996.191406 1147.402344 993.132812 C 1133.785156 990.078125 1131.304688 983.796875 1128.230469 970.1875 Z M 1107.933594 1157.296875 C 1105.660156 1167.339844 1103.820312 1171.976562 1093.777344 1174.246094 C 1103.820312 1176.515625 1105.660156 1181.15625 1107.933594 1191.199219 C 1110.199219 1181.15625 1112.039062 1176.515625 1122.085938 1174.246094 C 1112.039062 1171.976562 1110.199219 1167.339844 1107.933594 1157.296875 Z M 1099.359375 1385.925781 C 1096.835938 1397.101562 1094.789062 1402.265625 1083.609375 1404.804688 C 1094.789062 1407.328125 1096.835938 1412.492188 1099.359375 1423.667969 C 1101.882812 1412.492188 1103.933594 1407.328125 1115.109375 1404.804688 C 1103.933594 1402.265625 1101.882812 1397.101562 1099.359375 1385.925781 Z M 940.378906 866.125 C 937.875 877.207031 935.847656 882.324219 924.765625 884.828125 C 935.847656 887.332031 937.875 892.449219 940.378906 903.527344 C 942.882812 892.449219 944.910156 887.332031 955.992188 884.828125 C 944.910156 882.324219 942.882812 877.207031 940.378906 866.125 Z M 1049.160156 1459.410156 C 1045.613281 1475.117188 1042.734375 1482.375 1027.023438 1485.921875 C 1042.734375 1489.472656 1045.613281 1496.730469 1049.160156 1512.4375 C 1052.710938 1496.730469 1055.585938 1489.472656 1071.300781 1485.921875 C 1055.585938 1482.375 1052.710938 1475.117188 1049.160156 1459.410156 Z M 939.066406 1255.785156 C 936.9375 1265.21875 935.210938 1269.574219 925.773438 1271.707031 C 935.210938 1273.835938 936.9375 1278.195312 939.066406 1287.628906 C 941.199219 1278.195312 942.929688 1273.835938 952.363281 1271.707031 C 942.9375 1269.574219 941.195312 1265.21875 939.0625 1255.785156 Z M 786.714844 949.027344 C 789.085938 938.546875 791 933.703125 801.484375 931.339844 C 791 928.972656 789.085938 924.128906 786.714844 913.648438 C 784.347656 924.128906 782.425781 928.972656 771.945312 931.339844 C 782.425781 933.703125 784.332031 938.546875 786.714844 949.027344 Z M 804.363281 1109.726562 C 800.828125 1125.371094 797.972656 1132.597656 782.3125 1136.132812 C 797.960938 1139.667969 800.828125 1146.898438 804.363281 1162.539062 C 807.898438 1146.898438 810.753906 1139.667969 826.410156 1136.132812 C 810.765625 1132.597656 807.898438 1125.371094 804.375 1109.726562 Z M 866.90625 1458.625 C 865.265625 1465.910156 863.925781 1469.273438 856.644531 1470.917969 C 863.925781 1472.5625 865.265625 1475.929688 866.90625 1483.210938 C 868.554688 1475.929688 869.886719 1472.5625 877.171875 1470.917969 C 869.886719 1469.273438 868.554688 1465.910156 866.90625 1458.625 Z M 637.949219 950.78125 C 634.734375 965.015625 632.140625 971.585938 617.90625 974.800781 C 632.140625 978.015625 634.753906 984.585938 637.949219 998.8125 C 641.167969 984.582031 643.761719 978.015625 657.992188 974.800781 C 643.773438 971.585938 641.167969 965.011719 637.949219 950.78125 Z M 784.042969 1460.667969 C 780.050781 1478.320312 776.816406 1486.472656 759.160156 1490.460938 C 776.816406 1494.449219 780.050781 1502.601562 784.042969 1520.257812 C 788.03125 1502.601562 791.261719 1494.449219 808.917969 1490.460938 C 791.257812 1486.472656 788.023438 1478.320312 784.042969 1460.667969 Z M 588.011719 1073.363281 C 573.648438 1070.117188 571.015625 1063.488281 567.773438 1049.125 C 564.527344 1063.484375 561.894531 1070.117188 547.535156 1073.363281 C 561.894531 1076.609375 564.527344 1083.238281 567.773438 1097.601562 C 571.011719 1083.238281 573.644531 1076.609375 588.003906 1073.363281 Z M 599.261719 1295.6875 C 599.84375 1293.132812 600.304688 1291.953125 602.859375 1291.378906 C 600.304688 1290.796875 599.839844 1289.632812 599.261719 1287.070312 C 598.683594 1289.621094 598.21875 1290.800781 595.664062 1291.378906 C 598.210938 1291.953125 598.679688 1293.132812 599.257812 1295.6875 Z M 553.277344 1337.726562 C 552.503906 1341.144531 551.878906 1342.722656 548.460938 1343.492188 C 551.878906 1344.265625 552.503906 1345.847656 553.277344 1349.261719 C 554.050781 1345.847656 554.675781 1344.265625 558.09375 1343.492188 C 554.671875 1342.722656 554.042969 1341.144531 553.269531 1337.726562 Z M 589.054688 1599.878906 C 585.726562 1614.617188 583.023438 1621.425781 568.285156 1624.757812 C 583.027344 1628.085938 585.714844 1634.894531 589.054688 1649.632812 C 592.386719 1634.894531 595.085938 1628.085938 609.828125 1624.757812 C 595.082031 1621.425781 592.382812 1614.617188 589.050781 1599.878906 Z M 403.4375 1150.929688 C 401.320312 1160.28125 399.609375 1164.597656 390.257812 1166.710938 C 399.609375 1168.824219 401.320312 1173.144531 403.4375 1182.496094 C 405.546875 1173.144531 407.261719 1168.824219 416.613281 1166.710938 C 407.257812 1164.601562 405.539062 1160.28125 403.433594 1150.929688 Z M 415.664062 1571.195312 C 414.53125 1576.214844 413.613281 1578.535156 408.589844 1579.667969 C 413.613281 1580.804688 414.53125 1583.121094 415.664062 1588.144531 C 416.800781 1583.121094 417.71875 1580.804688 422.742188 1579.667969 C 417.714844 1578.527344 416.796875 1576.207031 415.664062 1571.1875 Z M 333.417969 1359.484375 C 332.921875 1361.6875 332.515625 1362.703125 330.316406 1363.199219 C 332.515625 1363.699219 332.929688 1364.714844 333.417969 1366.917969 C 333.914062 1364.714844 334.316406 1363.699219 336.519531 1363.199219 C 334.316406 1362.695312 333.910156 1361.679688 333.414062 1359.476562 Z M 263.527344 1247.109375 C 260.40625 1260.929688 257.875 1267.316406 244.050781 1270.4375 C 257.875 1273.5625 260.40625 1279.949219 263.527344 1293.769531 C 266.652344 1279.949219 269.183594 1273.5625 283.007812 1270.4375 C 269.183594 1267.308594 266.652344 1260.917969 263.527344 1247.109375 Z M 207.71875 1337.683594 C 204.980469 1349.804688 202.757812 1355.402344 190.636719 1358.144531 C 202.757812 1360.882812 204.980469 1366.480469 207.71875 1378.601562 C 210.457031 1366.480469 212.679688 1360.886719 224.800781 1358.144531 C 212.6875 1355.40625 210.464844 1349.792969 207.71875 1337.683594 Z M 65.703125 1582.191406 C 62.308594 1597.203125 59.5625 1604.136719 44.546875 1607.53125 C 59.5625 1610.921875 62.308594 1617.855469 65.703125 1632.867188 C 69.097656 1617.855469 71.84375 1610.921875 86.859375 1607.53125 C 71.84375 1604.136719 69.097656 1597.203125 65.703125 1582.191406 Z M 105.789062 1239.386719 C 103.5625 1249.261719 101.753906 1253.804688 91.890625 1256.035156 C 101.765625 1258.265625 103.5625 1262.816406 105.789062 1272.683594 C 108.019531 1262.808594 109.828125 1258.265625 119.691406 1256.035156 C 109.824219 1253.804688 108.019531 1249.25 105.785156 1239.386719 Z M 118.757812 1089.613281 C 103.132812 1086.085938 100.269531 1078.867188 96.738281 1063.246094 C 93.210938 1078.867188 90.347656 1086.085938 74.722656 1089.613281 C 90.347656 1093.140625 93.210938 1100.359375 96.738281 1115.984375 C 100.269531 1100.359375 103.144531 1093.140625 118.753906 1089.613281 Z M 123.949219 592.203125 C 122.683594 597.796875 121.660156 600.382812 116.0625 601.648438 C 121.660156 602.914062 122.683594 605.496094 123.949219 611.09375 C 125.210938 605.496094 126.238281 602.914062 131.832031 601.648438 C 126.234375 600.382812 125.21875 597.796875 123.945312 592.203125 Z M 123.769531 529.296875 C 125.03125 523.703125 126.058594 521.121094 131.652344 519.855469 C 126.058594 518.59375 125.03125 516.007812 123.769531 510.414062 C 122.503906 516.007812 121.480469 518.59375 115.882812 519.855469 C 121.464844 521.109375 122.488281 523.695312 123.769531 529.296875 Z M 88.648438 414.40625 C 90.292969 407.125 91.625 403.757812 98.910156 402.113281 C 91.625 400.46875 90.292969 397.105469 88.648438 389.824219 C 87 397.105469 85.667969 400.46875 78.386719 402.113281 C 85.667969 403.757812 87 407.125 88.648438 414.40625 Z M 196.011719 436.449219 C 190.492188 435.207031 189.5 432.675781 188.253906 427.15625 C 187.011719 432.65625 186.003906 435.199219 180.5 436.449219 C 186.003906 437.691406 187.011719 440.226562 188.253906 445.742188 C 189.5 440.234375 190.507812 437.691406 196.011719 436.449219 Z M 136.710938 175.324219 C 133.414062 189.929688 130.738281 196.675781 116.128906 199.976562 C 130.738281 203.273438 133.414062 210.023438 136.710938 224.625 C 140.011719 210.023438 142.6875 203.273438 157.292969 199.976562 C 142.6875 196.675781 140.011719 189.929688 136.710938 175.324219 Z M 296.828125 437.695312 C 293.660156 451.707031 291.09375 458.179688 277.074219 461.34375 C 291.085938 464.507812 293.652344 470.980469 296.828125 484.988281 C 299.992188 470.980469 302.558594 464.507812 316.582031 461.34375 C 302.558594 458.179688 299.992188 451.707031 296.828125 437.695312 Z M 317.195312 259.890625 C 314.390625 272.300781 312.117188 278.035156 299.703125 280.839844 C 312.117188 283.644531 314.390625 289.375 317.195312 301.785156 C 320 289.375 322.269531 283.644531 334.6875 280.839844 C 322.269531 278.035156 320 272.300781 317.195312 259.890625 Z M 415.707031 424.203125 C 400.699219 420.816406 397.953125 413.886719 394.5625 398.882812 C 391.171875 413.886719 388.421875 420.816406 373.417969 424.203125 C 388.421875 427.59375 391.171875 434.523438 394.5625 449.527344 C 397.953125 434.523438 400.699219 427.59375 415.707031 424.203125 Z M 440.71875 134.589844 C 437.019531 150.96875 434.019531 158.53125 417.640625 162.234375 C 434.019531 165.933594 437.019531 173.5 440.71875 189.875 C 444.421875 173.5 447.421875 165.933594 463.800781 162.234375 C 447.421875 158.527344 444.421875 150.960938 440.71875 134.589844 Z M 490.039062 370.78125 C 486.925781 384.5625 484.402344 390.925781 470.621094 394.039062 C 484.402344 397.152344 486.925781 403.519531 490.039062 417.296875 C 493.152344 403.519531 495.675781 397.152344 509.460938 394.039062 C 495.675781 390.921875 493.152344 384.558594 490.039062 370.773438 Z M 528.382812 478.054688 C 524.53125 495.109375 521.410156 502.988281 504.347656 506.839844 C 521.40625 510.695312 524.53125 518.570312 528.382812 535.625 C 532.238281 518.570312 535.355469 510.695312 552.417969 506.839844 C 535.386719 502.984375 532.25 495.105469 528.394531 478.050781 Z M 584.847656 450.257812 C 585.773438 446.15625 586.527344 444.261719 590.628906 443.332031 C 586.527344 442.40625 585.773438 440.511719 584.847656 436.410156 C 583.921875 440.511719 583.171875 442.40625 579.066406 443.332031 C 583.183594 444.253906 583.933594 446.152344 584.859375 450.25 Z M 691.445312 8.007812 C 690.382812 12.710938 689.523438 14.882812 684.820312 15.945312 C 689.523438 17.007812 690.382812 19.179688 691.445312 23.882812 C 692.507812 19.179688 693.371094 17.007812 698.074219 15.945312 C 693.371094 14.882812 692.507812 12.710938 691.445312 8.007812 Z M 713.25 281.601562 C 710.445312 294.007812 708.175781 299.734375 695.769531 302.535156 C 708.175781 305.339844 710.445312 311.070312 713.25 323.472656 C 716.054688 311.070312 718.324219 305.339844 730.730469 302.535156 C 718.324219 299.738281 716.066406 294.011719 713.25 281.605469 Z M 808.320312 80.992188 C 809.753906 74.652344 810.914062 71.722656 817.257812 70.289062 C 810.914062 68.855469 809.753906 65.929688 808.320312 59.582031 C 806.886719 65.925781 805.726562 68.855469 799.382812 70.289062 C 805.726562 71.730469 806.886719 74.65625 808.320312 81 Z M 853.175781 123.519531 C 855.757812 112.09375 857.851562 106.816406 869.277344 104.234375 C 857.851562 101.65625 855.757812 96.375 853.175781 84.949219 C 850.59375 96.375 848.5 101.65625 837.074219 104.234375 C 848.503906 106.816406 850.597656 112.09375 853.175781 123.519531 Z M 876.0625 368 C 860.378906 364.457031 857.496094 357.207031 853.949219 341.515625 C 850.40625 357.199219 847.53125 364.460938 831.835938 368 C 847.523438 371.546875 850.40625 378.792969 853.949219 394.484375 C 857.5 378.792969 860.375 371.546875 876.066406 368 Z M 885.039062 444.621094 C 881.222656 461.507812 878.132812 469.308594 861.242188 473.121094 C 878.132812 476.9375 881.222656 484.738281 885.039062 501.621094 C 888.855469 484.734375 891.949219 476.933594 908.835938 473.121094 C 891.949219 469.308594 888.855469 461.507812 885.042969 444.621094 Z M 911.804688 598.078125 C 910.863281 602.253906 910.09375 604.175781 905.917969 605.125 C 910.09375 606.070312 910.855469 608 911.804688 612.179688 C 912.75 608 913.511719 606.078125 917.695312 605.125 C 913.515625 604.183594 912.753906 602.253906 911.808594 598.078125 Z M 995.007812 418.527344 C 993.191406 426.578125 991.714844 430.296875 983.664062 432.117188 C 991.714844 433.933594 993.191406 437.65625 995.007812 445.707031 C 996.832031 437.65625 998.304688 433.933594 1006.359375 432.117188 C 998.304688 430.296875 996.832031 426.578125 995.011719 418.527344 Z M 1108.910156 45.730469 C 1111.941406 32.304688 1114.402344 26.101562 1127.832031 23.078125 C 1114.402344 20.042969 1111.941406 13.839844 1108.910156 0.421875 C 1105.871094 13.851562 1103.414062 20.054688 1089.984375 23.078125 C 1103.414062 26.101562 1105.871094 32.304688 1108.910156 45.730469 Z M 1092.773438 421.363281 C 1093.816406 416.742188 1094.664062 414.609375 1099.28125 413.566406 C 1094.664062 412.523438 1093.816406 410.386719 1092.773438 405.769531 C 1091.730469 410.386719 1090.882812 412.523438 1086.261719 413.566406 C 1090.882812 414.609375 1091.730469 416.742188 1092.773438 421.363281 Z M 1133.355469 560.085938 C 1130.105469 574.46875 1127.46875 581.113281 1113.082031 584.363281 C 1127.46875 587.613281 1130.105469 594.257812 1133.355469 608.644531 C 1136.605469 594.257812 1139.242188 587.613281 1153.628906 584.363281 C 1139.242188 581.097656 1136.605469 574.457031 1133.355469 560.085938 Z M 1202.832031 205.800781 C 1202.148438 208.824219 1201.597656 210.214844 1198.574219 210.898438 C 1201.597656 211.582031 1202.148438 212.976562 1202.832031 215.996094 C 1203.515625 212.976562 1204.070312 211.582031 1207.089844 210.898438 C 1204.082031 210.214844 1203.503906 208.824219 1202.832031 205.800781 Z M 1242.855469 446.332031 C 1235.351562 444.636719 1233.976562 441.171875 1232.28125 433.671875 C 1230.585938 441.171875 1229.214844 444.636719 1221.710938 446.332031 C 1229.214844 448.027344 1230.585938 451.492188 1232.28125 458.992188 C 1233.976562 451.492188 1235.351562 448.027344 1242.855469 446.332031 Z M 1291.035156 527.246094 C 1292.289062 521.695312 1293.304688 519.132812 1298.855469 517.878906 C 1293.304688 516.625 1292.289062 514.058594 1291.035156 508.503906 C 1289.777344 514.058594 1288.761719 516.625 1283.207031 517.878906 C 1288.761719 519.132812 1289.777344 521.695312 1291.035156 527.246094 Z M 1237.265625 217.269531 C 1238.003906 214.003906 1238.601562 212.496094 1241.867188 211.75 C 1238.601562 211.011719 1238.003906 209.503906 1237.265625 206.230469 C 1236.527344 209.5 1235.929688 211.007812 1232.664062 211.75 C 1235.929688 212.496094 1236.527344 214.003906 1237.265625 217.269531 Z M 1387.582031 424.71875 C 1383.566406 442.503906 1380.320312 450.722656 1362.515625 454.742188 C 1380.304688 458.757812 1383.566406 466.976562 1387.582031 484.765625 C 1391.601562 466.976562 1394.863281 458.757812 1412.652344 454.742188 C 1394.863281 450.722656 1391.601562 442.503906 1387.582031 424.71875 Z M 1418.914062 435.601562 C 1422.242188 420.863281 1424.945312 414.058594 1439.679688 410.726562 C 1424.945312 407.398438 1422.253906 400.59375 1418.914062 385.859375 C 1415.585938 400.59375 1412.886719 407.398438 1398.148438 410.726562 C 1412.886719 414.058594 1415.585938 420.863281 1418.914062 435.601562 Z M 1379.3125 270.296875 C 1377.222656 279.542969 1375.535156 283.8125 1366.285156 285.898438 C 1375.53125 287.992188 1377.222656 292.261719 1379.3125 301.503906 C 1381.402344 292.261719 1383.089844 287.992188 1392.339844 285.898438 C 1383.09375 283.8125 1381.402344 279.542969 1379.3125 270.296875 Z M 1375.703125 214.273438 C 1377.332031 207.070312 1378.652344 203.742188 1385.867188 202.117188 C 1378.664062 200.488281 1377.347656 197.160156 1375.703125 189.957031 C 1374.074219 197.160156 1372.757812 200.488281 1365.550781 202.117188 C 1372.757812 203.742188 1374.074219 207.070312 1375.703125 214.273438 Z M 1375.703125 214.273438 " fill-opacity="1" fill-rule="nonzero"/></g></svg>